<svg id="Layer_1" data-name="Layer 1" xmlns="http://www.w3.org/2000/svg" viewBox="0 0 50 50"><defs><style>.cls-1{fill:#2ecc71;}</style></defs><title>vk</title><path class="cls-1" d="M17.67,25q0-4.43,0-8.85c0-.34,0-.3.3-.3,2.35,0,4.7,0,7,0a14.05,14.05,0,0,1,2.36.18,5.58,5.58,0,0,1,2.13.83,3.28,3.28,0,0,1,1.38,1.81,4.53,4.53,0,0,1-.24,3.45,3.82,3.82,0,0,1-1.78,1.77,1.71,1.71,0,0,0-.2.1s-.08.07-.08.11.05.08.09.09a1.64,1.64,0,0,0,.21.06A5.06,5.06,0,0,1,31,25.27a3.68,3.68,0,0,1,1.24,2.12,5.91,5.91,0,0,1-.07,2.71,4.85,4.85,0,0,1-1.89,2.71,6.64,6.64,0,0,1-3,1.21,14.29,14.29,0,0,1-2.11.15H17.83c-.14,0-.16,0-.16-.16s0-.12,0-.18Q17.67,29.4,17.67,25Zm4.52,3.53q0,1,0,2.08c0,.28,0,.29.29.28l2.43,0a3.76,3.76,0,0,0,1.66-.42,1.8,1.8,0,0,0,.88-1,2.86,2.86,0,0,0,.1-1.7,1.67,1.67,0,0,0-.69-1,2.69,2.69,0,0,0-1-.43,6.29,6.29,0,0,0-1.24-.09c-.74,0-1.47,0-2.21,0-.21,0-.23,0-.23.23,0,0,0,.09,0,.13Q22.19,27.53,22.19,28.51Zm0-9.35c0,.08,0,.14,0,.2q0,1.77,0,3.53c0,.2,0,.21.23.22h.13l1.73,0a2.78,2.78,0,0,0,1.22-.29,1.46,1.46,0,0,0,.75-.71,2.36,2.36,0,0,0,.16-1.58,1.56,1.56,0,0,0-1.2-1.24,4.08,4.08,0,0,0-.82-.12c-.67,0-1.34,0-2,0Z"/></svg>